<svg version="1.1" id="Layer_1" xmlns:x="ns_extend;" xmlns:i="ns_ai;" xmlns:graph="ns_graphs;" xmlns="http://www.w3.org/2000/svg" xmlns:xlink="http://www.w3.org/1999/xlink" x="0px" y="0px" viewBox="0 0 39.2 53" style="enable-background:new 0 0 39.2 53;" xml:space="preserve">
 <style type="text/css">
  .st0{fill:#005172;}
	.st1{fill:#3095B4;}
 </style>
 <metadata>
  <sfw xmlns="ns_sfw;">
   <slices>
   </slices>
   <sliceSourceBounds bottomLeftOrigin="true" height="53" width="39.2" x="24.8" y="-8.3">
   </sliceSourceBounds>
  </sfw>
 </metadata>
 <g>
  <path class="st0" d="M2.3,8.5L38.5,46l-3.8,3.6l-5.8-5.9l-5.6,5.4c-2.6,2.6-6.1,3.9-9.8,3.8c-3.6,0-7.1-1.5-9.7-4.2
		c-2.6-2.6-3.9-6.1-3.8-9.8c0-3.6,1.5-7.1,4.2-9.7L8,25.6l3.6,3.8L7.9,33c-1.7,1.5-2.6,3.6-2.6,5.9s0.8,4.4,2.4,6.1
		c1.5,1.7,3.6,2.6,5.9,2.6s4.4-0.8,6.1-2.4l5.6-5.4l-23-23.5V8.5z">
  </path>
  <path class="st1" d="M35.4,18.5c2.6,2.6,3.9,6.1,3.8,9.8c0,3.6-1.5,7.1-4.2,9.7l-0.5,0.5l-3.6-3.8l0.5-0.5c1.7-1.5,2.6-3.6,2.6-5.9
		s-0.8-4.4-2.4-6.1c-0.9-0.9-1.8-1.7-3-2.1v-5.6C31.2,15.2,33.6,16.5,35.4,18.5 M5.8,3.2L3.2,5.8l3.6,3.8l2.6-2.4
		c2.6-2.4,6.5-2.4,8.9,0.2s2.4,6.5-0.2,8.9l-2.6,2.4l3.6,3.8l2.6-2.4c4.7-4.4,4.7-11.8,0.3-16.5C17.7-1,10.5-1.2,5.8,3.2">
  </path>
 </g>
</svg>